<svg width="36" height="36" viewBox="0 0 36 36" fill="none" xmlns="http://www.w3.org/2000/svg">
<path d="M16.5312 0.386078C16.6608 0.940857 16.6608 1.92793 16.524 2.4611C16.2864 3.41935 15.7752 4.2191 14.4072 5.77536C13.1976 7.15871 12.6504 7.98007 12.3192 8.88789C11.7936 10.3361 11.8944 11.741 12.6288 13.0956C13.104 13.9746 13.7088 14.6807 15.5088 16.4531C16.5024 17.4401 17.4672 18.4128 17.6544 18.6218C17.8344 18.8379 18.0288 18.9964 18.0864 18.982C18.144 18.9748 18.4824 18.6362 18.828 18.2399C19.1808 17.8436 20.1168 16.8493 20.9232 16.028C23.364 13.5351 23.868 12.6056 23.8608 10.6027C23.8608 9.60118 23.7672 9.11125 23.4216 8.26107C23.0688 7.39647 22.2048 6.25089 22.0392 6.43101C22.0032 6.46704 21.888 6.76964 21.78 7.10828C21.5208 7.90802 21.0456 8.85187 20.6568 9.34181C20.484 9.55795 20.0304 10.0839 19.6488 10.5018C18.8208 11.424 18.3528 12.0581 18.108 12.62C17.892 13.0956 17.712 13.8089 17.712 14.1619C17.712 14.5077 17.604 14.3636 17.5032 13.8953C17.3304 13.0523 17.4744 12.1013 17.9136 11.1791C18.072 10.862 18.4896 10.1488 18.8568 9.59398C19.584 8.48442 19.836 8.00889 20.1312 7.1443C20.304 6.64716 20.3328 6.45983 20.3256 5.73934C20.3256 4.52891 20.052 3.55625 19.4112 2.4683C18.7848 1.40918 17.5032 0.299618 16.5888 0.0186272C16.4376 -0.0246029 16.4376 -0.0246029 16.5312 0.386078Z" fill="#91040C"/>
<path d="M34.632 11.5465C31.932 12.0364 29.7576 12.6848 27.5184 13.6575C24.4152 15.0048 22.3848 16.5035 20.088 19.1405C19.764 19.5151 19.2888 20.0555 19.0368 20.3365L18.576 20.848V28.4276C18.576 32.7218 18.6048 36 18.6408 36C18.6768 36 18.7488 35.9424 18.7992 35.8775C18.9792 35.6614 20.6352 34.4654 21.3624 34.0258C25.7616 31.3744 29.7216 30.092 34.1856 29.8686C34.956 29.8326 35.6328 29.7677 35.6832 29.7245C35.7336 29.6885 35.82 29.5444 35.8848 29.4147C35.9856 29.1913 36 28.2835 36 20.5094V11.8491L35.7912 11.6401C35.5536 11.4024 35.4456 11.3952 34.632 11.5465Z" fill="#FFF8F0"/>
<path d="M0.388861 11.5752C0.302462 11.6112 0.180062 11.712 0.115262 11.8057C0.0144619 11.9498 6.19188e-05 12.7784 6.19188e-05 20.5309C6.19188e-05 29.8324 -0.0143381 29.429 0.396061 29.7028C0.547261 29.8036 0.835261 29.8396 1.85766 29.8829C5.45765 30.0342 8.94965 30.9924 12.348 32.7504C14.2776 33.7519 15.6024 34.5805 16.74 35.4955C17.0208 35.7189 17.2872 35.9206 17.3376 35.9566C17.4024 35.9999 17.424 34.4796 17.424 28.4419V20.8839L16.2504 19.5582C14.4648 17.5552 13.1976 16.4097 11.664 15.4226C9.13685 13.7871 5.37846 12.3749 1.63446 11.6544C0.792061 11.4887 0.619261 11.4815 0.388861 11.5752Z" fill="#FFF8F0"/>
</svg>
