<svg width="89" height="88" viewBox="0 0 89 88" fill="none" xmlns="http://www.w3.org/2000/svg">
<path d="M40.4375 0.943665C40.7545 2.29979 40.7545 4.71265 40.4199 6.01594C39.8387 8.35834 38.5882 10.3133 35.242 14.1175C32.2831 17.499 30.9446 19.5068 30.1345 21.7259C28.8488 25.2659 29.0953 28.7003 30.8918 32.0113C32.0542 34.16 33.5336 35.886 37.9366 40.2185C40.3671 42.6314 42.7271 45.009 43.185 45.5198C43.6253 46.0481 44.1008 46.4356 44.2417 46.4004C44.3826 46.3828 45.2104 45.555 46.0557 44.5863C46.9187 43.6177 49.2083 41.1872 51.1809 39.1794C57.1513 33.0857 58.3842 30.8137 58.3666 25.9176C58.3666 23.4695 58.1376 22.2719 57.2922 20.1936C56.4292 18.0802 54.3158 15.2799 53.9107 15.7202C53.8227 15.8082 53.5409 16.5479 53.2767 17.3757C52.6427 19.3306 51.4803 21.6378 50.5292 22.8354C50.1065 23.3638 48.997 24.6495 48.0635 25.671C46.0381 27.9253 44.8934 29.4752 44.2945 30.8489C43.7662 32.0113 43.3259 33.7549 43.3259 34.6179C43.3259 35.4633 43.0617 35.111 42.8151 33.9663C42.3924 31.9057 42.7447 29.5809 43.819 27.3265C44.2065 26.5516 45.228 24.808 46.1262 23.4519C47.905 20.7396 48.5214 19.5772 49.2435 17.4638C49.6662 16.2485 49.7367 15.7906 49.7191 14.0294C49.7191 11.0706 49.0498 8.69297 47.4823 6.03355C45.9501 3.44458 42.8151 0.732323 40.5784 0.0454521C40.2085 -0.0602188 40.2085 -0.0602226 40.4375 0.943665Z" fill="#91040C"/>
<path d="M84.7148 28.2247C78.1103 29.4223 72.7915 31.0074 67.3141 33.385C59.7233 36.6785 54.7567 40.3418 49.1385 46.7878C48.3459 47.7036 47.1835 49.0245 46.5671 49.7114L45.4399 50.9619V69.4897C45.4399 79.9865 45.5104 88 45.5984 88C45.6865 88 45.8626 87.8591 45.9859 87.7006C46.4262 87.1722 50.477 84.2486 52.2558 83.1743C63.0168 76.6931 72.7034 73.5581 83.6229 73.0121C85.5074 72.9241 87.1629 72.7656 87.2862 72.6599C87.4095 72.5718 87.6208 72.2196 87.7793 71.9026C88.0259 71.3566 88.0611 69.1375 88.0611 50.1341V28.9644L87.5504 28.4537C86.9692 27.8725 86.705 27.8549 84.7148 28.2247Z" fill="#29292B"/>
<path d="M0.951202 28.2952C0.739857 28.3832 0.440453 28.6298 0.281944 28.8587C0.0353756 29.211 0.000151461 31.2364 0.000151461 50.1869C0.000151461 72.9241 -0.0350727 71.9378 0.968814 72.6071C1.33867 72.8536 2.04315 72.9417 4.54406 73.0474C13.3501 73.4172 21.8919 75.7596 30.2048 80.057C34.9248 82.505 38.1655 84.5304 40.9482 86.7671C41.635 87.3131 42.2867 87.8063 42.41 87.8943C42.5685 88 42.6213 84.2838 42.6213 69.5249V51.0499L39.7505 47.8093C35.3828 42.9131 32.283 40.1128 28.5317 37.7C22.3498 33.702 13.1564 30.2501 3.99809 28.4889C1.93748 28.0838 1.51479 28.0662 0.951202 28.2952Z" fill="#29292B"/>
</svg>
